<svg id="mermaid-svg" width="100%" xmlns="http://www.w3.org/2000/svg" style="max-width: 663.0690307617188px;" viewBox="-108.92731475830078 0 663.0690307617188 832" role="graphics-document document" aria-roledescription="er" xmlns:xlink="http://www.w3.org/1999/xlink"><style xmlns="http://www.w3.org/1999/xhtml">@import url("https://cdnjs.cloudflare.com/ajax/libs/font-awesome/6.6.0/css/all.min.css");</style><style>#mermaid-svg{font-family:"trebuchet ms",verdana,arial,sans-serif;font-size:16px;fill:#ccc;}#mermaid-svg .error-icon{fill:#a44141;}#mermaid-svg .error-text{fill:#ddd;stroke:#ddd;}#mermaid-svg .edge-thickness-normal{stroke-width:1px;}#mermaid-svg .edge-thickness-thick{stroke-width:3.5px;}#mermaid-svg .edge-pattern-solid{stroke-dasharray:0;}#mermaid-svg .edge-thickness-invisible{stroke-width:0;fill:none;}#mermaid-svg .edge-pattern-dashed{stroke-dasharray:3;}#mermaid-svg .edge-pattern-dotted{stroke-dasharray:2;}#mermaid-svg .marker{fill:lightgrey;stroke:lightgrey;}#mermaid-svg .marker.cross{stroke:lightgrey;}#mermaid-svg svg{font-family:"trebuchet ms",verdana,arial,sans-serif;font-size:16px;}#mermaid-svg p{margin:0;}#mermaid-svg .entityBox{fill:#1f2020;stroke:#ccc;}#mermaid-svg .attributeBoxOdd{fill:hsl(0, 0%, 32%);stroke:#ccc;}#mermaid-svg .attributeBoxEven{fill:hsl(0, 0%, 22%);stroke:#ccc;}#mermaid-svg .relationshipLabelBox{fill:hsl(20, 1.5873015873%, 12.3529411765%);opacity:0.7;background-color:hsl(20, 1.5873015873%, 12.3529411765%);}#mermaid-svg .relationshipLabelBox rect{opacity:0.5;}#mermaid-svg .relationshipLine{stroke:lightgrey;}#mermaid-svg .entityTitleText{text-anchor:middle;font-size:18px;fill:#ccc;}#mermaid-svg #MD_PARENT_START{fill:#f5f5f5!important;stroke:lightgrey!important;stroke-width:1;}#mermaid-svg #MD_PARENT_END{fill:#f5f5f5!important;stroke:lightgrey!important;stroke-width:1;}#mermaid-svg :root{--mermaid-font-family:"trebuchet ms",verdana,arial,sans-serif;}</style><g/><defs><marker id="MD_PARENT_START" refX="0" refY="7" markerWidth="190" markerHeight="240" orient="auto"><path d="M 18,7 L9,13 L1,7 L9,1 Z"/></marker></defs><defs><marker id="MD_PARENT_END" refX="19" refY="7" markerWidth="20" markerHeight="28" orient="auto"><path d="M 18,7 L9,13 L1,7 L9,1 Z"/></marker></defs><defs><marker id="ONLY_ONE_START" refX="0" refY="9" markerWidth="18" markerHeight="18" orient="auto"><path stroke="gray" fill="none" d="M9,0 L9,18 M15,0 L15,18"/></marker></defs><defs><marker id="ONLY_ONE_END" refX="18" refY="9" markerWidth="18" markerHeight="18" orient="auto"><path stroke="gray" fill="none" d="M3,0 L3,18 M9,0 L9,18"/></marker></defs><defs><marker id="ZERO_OR_ONE_START" refX="0" refY="9" markerWidth="30" markerHeight="18" orient="auto"><circle stroke="gray" fill="white" cx="21" cy="9" r="6"/><path stroke="gray" fill="none" d="M9,0 L9,18"/></marker></defs><defs><marker id="ZERO_OR_ONE_END" refX="30" refY="9" markerWidth="30" markerHeight="18" orient="auto"><circle stroke="gray" fill="white" cx="9" cy="9" r="6"/><path stroke="gray" fill="none" d="M21,0 L21,18"/></marker></defs><defs><marker id="ONE_OR_MORE_START" refX="18" refY="18" markerWidth="45" markerHeight="36" orient="auto"><path stroke="gray" fill="none" d="M0,18 Q 18,0 36,18 Q 18,36 0,18 M42,9 L42,27"/></marker></defs><defs><marker id="ONE_OR_MORE_END" refX="27" refY="18" markerWidth="45" markerHeight="36" orient="auto"><path stroke="gray" fill="none" d="M3,9 L3,27 M9,18 Q27,0 45,18 Q27,36 9,18"/></marker></defs><defs><marker id="ZERO_OR_MORE_START" refX="18" refY="18" markerWidth="57" markerHeight="36" orient="auto"><circle stroke="gray" fill="white" cx="48" cy="18" r="6"/><path stroke="gray" fill="none" d="M0,18 Q18,0 36,18 Q18,36 0,18"/></marker></defs><defs><marker id="ZERO_OR_MORE_END" refX="39" refY="18" markerWidth="57" markerHeight="36" orient="auto"><circle stroke="gray" fill="white" cx="9" cy="18" r="6"/><path stroke="gray" fill="none" d="M21,18 Q39,0 57,18 Q39,36 21,18"/></marker></defs><path class="er relationshipLine" d="M232.988,336.538L273.668,360.782C314.349,385.025,395.71,433.513,436.39,466.09C477.071,498.667,477.071,515.333,477.071,523.667L477.071,532" marker-end="url(#ZERO_OR_MORE_END)" marker-start="url(#ONLY_ONE_START)" style="stroke: gray; fill: none;"/><path class="er relationshipLine" d="M170,66L170,74.333C170,82.667,170,99.333,170,116C170,132.667,170,149.333,170,157.667L170,166" marker-end="url(#ZERO_OR_MORE_END)" marker-start="url(#ONLY_ONE_START)" style="stroke: gray; fill: none;"/><path class="er relationshipLine" d="M107.012,345.107L75.843,367.923C44.675,390.738,-17.663,436.369,-48.831,478.685C-80,521,-80,560,-80,599C-80,638,-80,677,-41.911,706.483C-3.822,735.965,72.357,755.93,110.446,765.913L148.535,775.896" marker-end="url(#ZERO_OR_MORE_END)" marker-start="url(#ONLY_ONE_START)" style="stroke: gray; fill: none;"/><path class="er relationshipLine" d="M107.012,414.268L100.843,425.556C94.675,436.845,82.337,459.423,76.169,486.378C70,513.333,70,544.667,70,560.333L70,576" marker-end="url(#ONLY_ONE_END)" marker-start="url(#ONLY_ONE_START)" style="stroke: gray; fill: none;"/><path class="er relationshipLine" d="M232.988,414.268L239.157,425.556C245.325,436.845,257.663,459.423,263.831,486.378C270,513.333,270,544.667,270,560.333L270,576" marker-end="url(#ZERO_OR_ONE_END)" marker-start="url(#ZERO_OR_ONE_START)" style="stroke: gray; fill: none;"/><path class="er relationshipLine" d="M477.071,666L477.071,674.333C477.071,682.667,477.071,699.333,438.982,717.649C400.892,735.965,324.714,755.93,286.625,765.913L248.535,775.896" marker-end="url(#ZERO_OR_ONE_END)" marker-start="url(#ONLY_ONE_START)" style="stroke: gray; fill: none;"/><g id="entity-Issue-a078f73f-19a0-5f5e-8479-ebab8cdaf6a6" transform="translate(107.01214599609375,166 )"><rect class="er entityBox" x="0" y="0" width="125.9757080078125" height="266"/><text class="er entityLabel" id="text-entity-Issue-a078f73f-19a0-5f5e-8479-ebab8cdaf6a6" x="0" y="0" transform="translate(62.98785400390625,12)" style="dominant-baseline: middle; text-anchor: middle; font-size: 12px;">Issue</text><rect class="er attributeBoxOdd" x="0" y="24" width="52.02435302734375" height="22"/><text class="er entityLabel" id="text-entity-Issue-a078f73f-19a0-5f5e-8479-ebab8cdaf6a6-attr-1-type" x="0" y="0" transform="translate(5,35)" style="dominant-baseline: middle; font-size: 10.2px;">string</text><rect class="er attributeBoxOdd" x="52.02435302734375" y="24" width="73.95135498046875" height="22"/><text class="er entityLabel" id="text-entity-Issue-a078f73f-19a0-5f5e-8479-ebab8cdaf6a6-attr-1-name" x="0" y="0" transform="translate(57.02435302734375,35)" style="dominant-baseline: middle; font-size: 10.2px;">url</text><rect class="er attributeBoxEven" x="0" y="46" width="52.02435302734375" height="22"/><text class="er entityLabel" id="text-entity-Issue-a078f73f-19a0-5f5e-8479-ebab8cdaf6a6-attr-2-type" x="0" y="0" transform="translate(5,57)" style="dominant-baseline: middle; font-size: 10.2px;">string</text><rect class="er attributeBoxEven" x="52.02435302734375" y="46" width="73.95135498046875" height="22"/><text class="er entityLabel" id="text-entity-Issue-a078f73f-19a0-5f5e-8479-ebab8cdaf6a6-attr-2-name" x="0" y="0" transform="translate(57.02435302734375,57)" style="dominant-baseline: middle; font-size: 10.2px;">creator</text><rect class="er attributeBoxOdd" x="0" y="68" width="52.02435302734375" height="22"/><text class="er entityLabel" id="text-entity-Issue-a078f73f-19a0-5f5e-8479-ebab8cdaf6a6-attr-3-type" x="0" y="0" transform="translate(5,79)" style="dominant-baseline: middle; font-size: 10.2px;">list</text><rect class="er attributeBoxOdd" x="52.02435302734375" y="68" width="73.95135498046875" height="22"/><text class="er entityLabel" id="text-entity-Issue-a078f73f-19a0-5f5e-8479-ebab8cdaf6a6-attr-3-name" x="0" y="0" transform="translate(57.02435302734375,79)" style="dominant-baseline: middle; font-size: 10.2px;">labels</text><rect class="er attributeBoxEven" x="0" y="90" width="52.02435302734375" height="22"/><text class="er entityLabel" id="text-entity-Issue-a078f73f-19a0-5f5e-8479-ebab8cdaf6a6-attr-4-type" x="0" y="0" transform="translate(5,101)" style="dominant-baseline: middle; font-size: 10.2px;">State</text><rect class="er attributeBoxEven" x="52.02435302734375" y="90" width="73.95135498046875" height="22"/><text class="er entityLabel" id="text-entity-Issue-a078f73f-19a0-5f5e-8479-ebab8cdaf6a6-attr-4-name" x="0" y="0" transform="translate(57.02435302734375,101)" style="dominant-baseline: middle; font-size: 10.2px;">state</text><rect class="er attributeBoxOdd" x="0" y="112" width="52.02435302734375" height="22"/><text class="er entityLabel" id="text-entity-Issue-a078f73f-19a0-5f5e-8479-ebab8cdaf6a6-attr-5-type" x="0" y="0" transform="translate(5,123)" style="dominant-baseline: middle; font-size: 10.2px;">list</text><rect class="er attributeBoxOdd" x="52.02435302734375" y="112" width="73.95135498046875" height="22"/><text class="er entityLabel" id="text-entity-Issue-a078f73f-19a0-5f5e-8479-ebab8cdaf6a6-attr-5-name" x="0" y="0" transform="translate(57.02435302734375,123)" style="dominant-baseline: middle; font-size: 10.2px;">assignees</text><rect class="er attributeBoxEven" x="0" y="134" width="52.02435302734375" height="22"/><text class="er entityLabel" id="text-entity-Issue-a078f73f-19a0-5f5e-8479-ebab8cdaf6a6-attr-6-type" x="0" y="0" transform="translate(5,145)" style="dominant-baseline: middle; font-size: 10.2px;">string</text><rect class="er attributeBoxEven" x="52.02435302734375" y="134" width="73.95135498046875" height="22"/><text class="er entityLabel" id="text-entity-Issue-a078f73f-19a0-5f5e-8479-ebab8cdaf6a6-attr-6-name" x="0" y="0" transform="translate(57.02435302734375,145)" style="dominant-baseline: middle; font-size: 10.2px;">title</text><rect class="er attributeBoxOdd" x="0" y="156" width="52.02435302734375" height="22"/><text class="er entityLabel" id="text-entity-Issue-a078f73f-19a0-5f5e-8479-ebab8cdaf6a6-attr-7-type" x="0" y="0" transform="translate(5,167)" style="dominant-baseline: middle; font-size: 10.2px;">string</text><rect class="er attributeBoxOdd" x="52.02435302734375" y="156" width="73.95135498046875" height="22"/><text class="er entityLabel" id="text-entity-Issue-a078f73f-19a0-5f5e-8479-ebab8cdaf6a6-attr-7-name" x="0" y="0" transform="translate(57.02435302734375,167)" style="dominant-baseline: middle; font-size: 10.2px;">text</text><rect class="er attributeBoxEven" x="0" y="178" width="52.02435302734375" height="22"/><text class="er entityLabel" id="text-entity-Issue-a078f73f-19a0-5f5e-8479-ebab8cdaf6a6-attr-8-type" x="0" y="0" transform="translate(5,189)" style="dominant-baseline: middle; font-size: 10.2px;">int</text><rect class="er attributeBoxEven" x="52.02435302734375" y="178" width="73.95135498046875" height="22"/><text class="er entityLabel" id="text-entity-Issue-a078f73f-19a0-5f5e-8479-ebab8cdaf6a6-attr-8-name" x="0" y="0" transform="translate(57.02435302734375,189)" style="dominant-baseline: middle; font-size: 10.2px;">number</text><rect class="er attributeBoxOdd" x="0" y="200" width="52.02435302734375" height="22"/><text class="er entityLabel" id="text-entity-Issue-a078f73f-19a0-5f5e-8479-ebab8cdaf6a6-attr-9-type" x="0" y="0" transform="translate(5,211)" style="dominant-baseline: middle; font-size: 10.2px;">datetime</text><rect class="er attributeBoxOdd" x="52.02435302734375" y="200" width="73.95135498046875" height="22"/><text class="er entityLabel" id="text-entity-Issue-a078f73f-19a0-5f5e-8479-ebab8cdaf6a6-attr-9-name" x="0" y="0" transform="translate(57.02435302734375,211)" style="dominant-baseline: middle; font-size: 10.2px;">created_date</text><rect class="er attributeBoxEven" x="0" y="222" width="52.02435302734375" height="22"/><text class="er entityLabel" id="text-entity-Issue-a078f73f-19a0-5f5e-8479-ebab8cdaf6a6-attr-10-type" x="0" y="0" transform="translate(5,233)" style="dominant-baseline: middle; font-size: 10.2px;">datetime</text><rect class="er attributeBoxEven" x="52.02435302734375" y="222" width="73.95135498046875" height="22"/><text class="er entityLabel" id="text-entity-Issue-a078f73f-19a0-5f5e-8479-ebab8cdaf6a6-attr-10-name" x="0" y="0" transform="translate(57.02435302734375,233)" style="dominant-baseline: middle; font-size: 10.2px;">updated_date</text><rect class="er attributeBoxOdd" x="0" y="244" width="52.02435302734375" height="22"/><text class="er entityLabel" id="text-entity-Issue-a078f73f-19a0-5f5e-8479-ebab8cdaf6a6-attr-11-type" x="0" y="0" transform="translate(5,255)" style="dominant-baseline: middle; font-size: 10.2px;">string</text><rect class="er attributeBoxOdd" x="52.02435302734375" y="244" width="73.95135498046875" height="22"/><text class="er entityLabel" id="text-entity-Issue-a078f73f-19a0-5f5e-8479-ebab8cdaf6a6-attr-11-name" x="0" y="0" transform="translate(57.02435302734375,255)" style="dominant-baseline: middle; font-size: 10.2px;">timeline_url</text></g><g id="entity-Event-5fcfcec5-0af7-59ba-bebb-bb0a822c8afa" transform="translate(420,532 )"><rect class="er entityBox" x="0" y="0" width="114.14169311523438" height="134"/><text class="er entityLabel" id="text-entity-Event-5fcfcec5-0af7-59ba-bebb-bb0a822c8afa" x="0" y="0" transform="translate(57.07084655761719,12)" style="dominant-baseline: middle; text-anchor: middle; font-size: 12px;">Event</text><rect class="er attributeBoxOdd" x="0" y="24" width="52.02435302734375" height="22"/><text class="er entityLabel" id="text-entity-Event-5fcfcec5-0af7-59ba-bebb-bb0a822c8afa-attr-1-type" x="0" y="0" transform="translate(5,35)" style="dominant-baseline: middle; font-size: 10.2px;">string</text><rect class="er attributeBoxOdd" x="52.02435302734375" y="24" width="62.117340087890625" height="22"/><text class="er entityLabel" id="text-entity-Event-5fcfcec5-0af7-59ba-bebb-bb0a822c8afa-attr-1-name" x="0" y="0" transform="translate(57.02435302734375,35)" style="dominant-baseline: middle; font-size: 10.2px;">event_type</text><rect class="er attributeBoxEven" x="0" y="46" width="52.02435302734375" height="22"/><text class="er entityLabel" id="text-entity-Event-5fcfcec5-0af7-59ba-bebb-bb0a822c8afa-attr-2-type" x="0" y="0" transform="translate(5,57)" style="dominant-baseline: middle; font-size: 10.2px;">string</text><rect class="er attributeBoxEven" x="52.02435302734375" y="46" width="62.117340087890625" height="22"/><text class="er entityLabel" id="text-entity-Event-5fcfcec5-0af7-59ba-bebb-bb0a822c8afa-attr-2-name" x="0" y="0" transform="translate(57.02435302734375,57)" style="dominant-baseline: middle; font-size: 10.2px;">author</text><rect class="er attributeBoxOdd" x="0" y="68" width="52.02435302734375" height="22"/><text class="er entityLabel" id="text-entity-Event-5fcfcec5-0af7-59ba-bebb-bb0a822c8afa-attr-3-type" x="0" y="0" transform="translate(5,79)" style="dominant-baseline: middle; font-size: 10.2px;">datetime</text><rect class="er attributeBoxOdd" x="52.02435302734375" y="68" width="62.117340087890625" height="22"/><text class="er entityLabel" id="text-entity-Event-5fcfcec5-0af7-59ba-bebb-bb0a822c8afa-attr-3-name" x="0" y="0" transform="translate(57.02435302734375,79)" style="dominant-baseline: middle; font-size: 10.2px;">event_date</text><rect class="er attributeBoxEven" x="0" y="90" width="52.02435302734375" height="22"/><text class="er entityLabel" id="text-entity-Event-5fcfcec5-0af7-59ba-bebb-bb0a822c8afa-attr-4-type" x="0" y="0" transform="translate(5,101)" style="dominant-baseline: middle; font-size: 10.2px;">string</text><rect class="er attributeBoxEven" x="52.02435302734375" y="90" width="62.117340087890625" height="22"/><text class="er entityLabel" id="text-entity-Event-5fcfcec5-0af7-59ba-bebb-bb0a822c8afa-attr-4-name" x="0" y="0" transform="translate(57.02435302734375,101)" style="dominant-baseline: middle; font-size: 10.2px;">label</text><rect class="er attributeBoxOdd" x="0" y="112" width="52.02435302734375" height="22"/><text class="er entityLabel" id="text-entity-Event-5fcfcec5-0af7-59ba-bebb-bb0a822c8afa-attr-5-type" x="0" y="0" transform="translate(5,123)" style="dominant-baseline: middle; font-size: 10.2px;">string</text><rect class="er attributeBoxOdd" x="52.02435302734375" y="112" width="62.117340087890625" height="22"/><text class="er entityLabel" id="text-entity-Event-5fcfcec5-0af7-59ba-bebb-bb0a822c8afa-attr-5-name" x="0" y="0" transform="translate(57.02435302734375,123)" style="dominant-baseline: middle; font-size: 10.2px;">comment</text></g><g id="entity-Creator-22c37820-830e-5050-9ef7-2120deecbdf9" transform="translate(120,20 )"><rect class="er entityBox" x="0" y="0" width="100" height="46"/><text class="er entityLabel" id="text-entity-Creator-22c37820-830e-5050-9ef7-2120deecbdf9" x="0" y="0" transform="translate(50,12)" style="dominant-baseline: middle; text-anchor: middle; font-size: 12px;">Creator</text><rect class="er attributeBoxOdd" x="0" y="24" width="40.56878662109375" height="22"/><text class="er entityLabel" id="text-entity-Creator-22c37820-830e-5050-9ef7-2120deecbdf9-attr-1-type" x="0" y="0" transform="translate(5,35)" style="dominant-baseline: middle; font-size: 10.2px;">string</text><rect class="er attributeBoxOdd" x="40.56878662109375" y="24" width="59.43121337890625" height="22"/><text class="er entityLabel" id="text-entity-Creator-22c37820-830e-5050-9ef7-2120deecbdf9-attr-1-name" x="0" y="0" transform="translate(45.56878662109375,35)" style="dominant-baseline: middle; font-size: 10.2px;">username</text></g><g id="entity-State-e636616e-94ba-59f9-83d3-4b160ad5ab07" transform="translate(20,576 )"><rect class="er entityBox" x="0" y="0" width="100" height="46"/><text class="er entityLabel" id="text-entity-State-e636616e-94ba-59f9-83d3-4b160ad5ab07" x="0" y="0" transform="translate(50,12)" style="dominant-baseline: middle; text-anchor: middle; font-size: 12px;">State</text><rect class="er attributeBoxOdd" x="0" y="24" width="35.895172119140625" height="22"/><text class="er entityLabel" id="text-entity-State-e636616e-94ba-59f9-83d3-4b160ad5ab07-attr-1-type" x="0" y="0" transform="translate(5,35)" style="dominant-baseline: middle; font-size: 10.2px;">enum</text><rect class="er attributeBoxOdd" x="35.895172119140625" y="24" width="64.10482788085938" height="22"/><text class="er entityLabel" id="text-entity-State-e636616e-94ba-59f9-83d3-4b160ad5ab07-attr-1-name" x="0" y="0" transform="translate(40.895172119140625,35)" style="dominant-baseline: middle; font-size: 10.2px;">state_value</text></g><g id="entity-Label-d19c4a76-3894-5ef8-8de6-9d2a6d7d85e1" transform="translate(148.5354232788086,766 )"><rect class="er entityBox" x="0" y="0" width="100" height="46"/><text class="er entityLabel" id="text-entity-Label-d19c4a76-3894-5ef8-8de6-9d2a6d7d85e1" x="0" y="0" transform="translate(50,12)" style="dominant-baseline: middle; text-anchor: middle; font-size: 12px;">Label</text><rect class="er attributeBoxOdd" x="0" y="24" width="36.20378112792969" height="22"/><text class="er entityLabel" id="text-entity-Label-d19c4a76-3894-5ef8-8de6-9d2a6d7d85e1-attr-1-type" x="0" y="0" transform="translate(5,35)" style="dominant-baseline: middle; font-size: 10.2px;">string</text><rect class="er attributeBoxOdd" x="36.20378112792969" y="24" width="63.79621887207031" height="22"/><text class="er entityLabel" id="text-entity-Label-d19c4a76-3894-5ef8-8de6-9d2a6d7d85e1-attr-1-name" x="0" y="0" transform="translate(41.20378112792969,35)" style="dominant-baseline: middle; font-size: 10.2px;">label_name</text></g><g id="entity-Assignee-944e0d94-f892-51ae-a558-ae2f8f01ba11" transform="translate(220,576 )"><rect class="er entityBox" x="0" y="0" width="100" height="46"/><text class="er entityLabel" id="text-entity-Assignee-944e0d94-f892-51ae-a558-ae2f8f01ba11" x="0" y="0" transform="translate(50,12)" style="dominant-baseline: middle; text-anchor: middle; font-size: 12px;">Assignee</text><rect class="er attributeBoxOdd" x="0" y="24" width="40.56878662109375" height="22"/><text class="er entityLabel" id="text-entity-Assignee-944e0d94-f892-51ae-a558-ae2f8f01ba11-attr-1-type" x="0" y="0" transform="translate(5,35)" style="dominant-baseline: middle; font-size: 10.2px;">string</text><rect class="er attributeBoxOdd" x="40.56878662109375" y="24" width="59.43121337890625" height="22"/><text class="er entityLabel" id="text-entity-Assignee-944e0d94-f892-51ae-a558-ae2f8f01ba11-attr-1-name" x="0" y="0" transform="translate(45.56878662109375,35)" style="dominant-baseline: middle; font-size: 10.2px;">username</text></g><rect class="er relationshipLabelBox" x="361.8316650390625" y="413.3250732421875" width="17.861328125" height="14"/><text class="er relationshipLabel" id="rel1" x="370.7623291015625" y="420.3250732421875" style="text-anchor: middle; dominant-baseline: middle; font-size: 12px;">has</text><rect class="er relationshipLabelBox" x="152.3935546875" y="109" width="35.212890625" height="14"/><text class="er relationshipLabel" id="rel2" x="170" y="116" style="text-anchor: middle; dominant-baseline: middle; font-size: 12px;">create</text><rect class="er relationshipLabelBox" x="-88.92731475830078" y="587.0267333984375" width="17.861328125" height="14"/><text class="er relationshipLabel" id="rel3" x="-79.99665069580078" y="594.0267333984375" style="text-anchor: middle; dominant-baseline: middle; font-size: 12px;">has</text><rect class="er relationshipLabelBox" x="50.492210388183594" y="484.91253662109375" width="49.01171875" height="14"/><text class="er relationshipLabel" id="rel4" x="74.9980697631836" y="491.91253662109375" style="text-anchor: middle; dominant-baseline: middle; font-size: 12px;">has state</text><rect class="er relationshipLabelBox" x="242.36907958984375" y="484.91253662109375" width="45.265625" height="14"/><text class="er relationshipLabel" id="rel5" x="265.00189208984375" y="491.91253662109375" style="text-anchor: middle; dominant-baseline: middle; font-size: 12px;">assigned</text><rect class="er relationshipLabelBox" x="369.2480773925781" y="733.2055053710938" width="17.861328125" height="14"/><text class="er relationshipLabel" id="rel6" x="378.1787414550781" y="740.2055053710938" style="text-anchor: middle; dominant-baseline: middle; font-size: 12px;">has</text></svg>